<svg height="100%" version="1.1" width="100%" xmlns="http://www.w3.org/2000/svg"
  preserveAspectRatio="xMidYMid meet" viewBox="0 0 600 442"
  xmlns:xlink="http://www.w3.org/1999/xlink">
  <desc>Created with Snap</desc>
  <defs />
  <g id="root" contentwidth="188.29999999999998" contentheight="216.6">
    <rect class="background" height="2000%" width="2000%" y="-1000%" x="-1000%" style=""
      fill="#ffffff" />
    <g class="content" id="content" transform="matrix(1,0,0,1,150,150)">
      <g class="name">
        <path
          d="M117.2 80 L117.2 65.3 L111.3 65.3 L111.3 56 L120.3 56 L117.7 50.5 L128.2 50.5 L131.1 56 L137.8 56 L137.8 49.2 L148.4 49.2 L148.4 56 L154.9 56 L157.4 50.5 L168.1 50.5 L165.7 56 L174.7 56 L174.7 65.3 L168.8 65.3 L168.8 80 L117.2 80 Z M148.7 89 L148.7 92.2 L171.7 92.2 L171.7 97.9 L148.7 97.9 L148.7 100.7 L175.5 100.7 L175.5 106.4 L148.7 106.4 L148.7 111.9 L138.2 115.8 L134.2 109.2 L137.4 107.9 L137.4 106.4 L110.8 106.4 L110.8 100.7 L137.4 100.7 L137.4 97.9 L114.6 97.9 L114.6 92.2 L137.4 92.2 L137.4 89.2 L113.8 89.6 L113.8 83.2 L174.2 82 L174.2 88.4 L148.7 89 Z M122.4 65.1 L163.6 65.1 L163.6 62 L122.4 62 L122.4 65.1 Z M127.7 71.1 L127.7 74.2 L158.3 74.2 L158.3 71.1 L127.7 71.1 "
          style="" fill="#0087ff" />
      </g>
    </g>
    <defs id="defs">
      <mask xmlns="http://www.w3.org/2000/svg" id="mask">
        <rect id="showAll" fill="white" x="0" y="0" width="0" height="0" />
        <rect id="hideNameBg" fill="black" x="0" y="0" width="0" height="0" stroke-width="2"
          stroke="black" />
        <rect id="hideSloganBg" fill="black" x="0" y="0" width="0" height="0" stroke-width="2"
          stroke="black" />
      </mask>

    </defs>
  </g>
</svg>